<svg xmlns="http://www.w3.org/2000/svg" width="1800" height="650"><path fill="#F11289" d="M1206.249 210.753q2.158-.002 4.315-.008c3.934-.006 7.868 0 11.802.008 4.25.007 8.5.002 12.749-.002q12.473-.006 24.945.01c9.678.01 19.357.01 29.036.01q25.891.001 51.782.023 25.143.021 50.287.02h6.258q28.612 0 57.223.015 10.13.004 20.26.004 12.33 0 24.657.014 6.295.008 12.59.007 5.753-.002 11.505.01h4.18q2.822-.002 5.645.007l3.178.003L1539 211l1 1c-.493 8.806-2.304 17.39-4.011 26.025q-.738 3.744-1.462 7.49-.466 2.385-.933 4.766l-.44 2.26c-1.038 5.228-1.038 5.228-2.154 7.459l-113 1-9 44h107c.936 3.743 1.034 4.935.287 8.493l-.546 2.669-.612 2.854-.61 2.942c-.644 3.1-1.3 6.195-1.957 9.292q-.658 3.152-1.314 6.305A4831 4831 0 0 1 1508 353c-6.444.822-12.71 1.14-19.201 1.114h-2.96q-4.797-.002-9.593-.016l-6.687-.005q-8.767-.006-17.533-.024-8.96-.014-17.919-.02-17.554-.016-35.107-.049l-.34 1.966-1.55 8.96-.534 3.09a983 983 0 0 1-4.06 21.902c-.626 3.219-.626 3.219-.516 7.082 2.596 1.298 4.496 1.14 7.404 1.158l3.476.03 3.831.017 4.021.03q5.466.04 10.933.068c3.807.022 7.613.05 11.42.076q10.815.074 21.631.138 12.312.076 24.624.16 25.33.17 50.66.323l.392-2.602c.878-5.774 1.761-11.535 2.898-17.265l.714-3.618.762-3.82.818-4.137q.874-4.415 1.75-8.828 1.397-7.022 2.785-14.044 1.455-7.35 2.912-14.7a27076 27076 0 0 0 7.736-39.17l3.167-16.085q2.825-14.35 5.663-28.696l1.25-6.324q1.047-5.288 2.098-10.575.584-2.94 1.165-5.883l.708-3.555.62-3.126C1566 214 1566 214 1567 211q17.253-.07 34.507-.104 8.014-.014 16.03-.047 7.761-.032 15.522-.039 2.934-.005 5.868-.021c16.976-.092 34.418.178 50.948 4.461l2.615.655c17.278 4.498 33.072 11.872 45.889 24.435 6.334 6.428 11.237 12.748 15.621 20.66l1.121 1.887c6.93 12.432 8.63 28.107 8.879 42.113-.733 30.301-8.82 59.897-24.567 85.862-3.019 4.766-6.493 8.941-10.402 13.017-1.714 1.79-3.208 3.6-4.719 5.559-12.474 14.657-32.235 25.034-49.937 31.875-12.273 4.19-24.722 5.836-37.607 5.834l-3.406.011q-5.643.015-11.286.019l-8.098.02c-8.095.02-16.19.03-24.285.039q-5.727.007-11.453.015a49599 49599 0 0 1-47.974.044l-2.479.002c-13.247.008-26.494.033-39.741.066q-20.427.049-40.854.054c-7.64.002-15.278.01-22.917.036q-9.76.034-19.519.02-4.973-.007-9.945.017c-15.095.075-27.526-.02-41.124-7.177-5.13-3.329-9.207-7.282-12.687-12.313-1.628-3.257-2.893-6.535-4-10l-1-3c-1.175-16.189 1.69-31.36 4.89-47.168q.762-3.864 1.519-7.729 1.581-8.05 3.198-16.093c1.508-7.505 2.99-15.014 4.468-22.525a13597 13597 0 0 1 4.243-21.446q1.053-5.298 2.117-10.594c.3-1.517.3-1.517.608-3.064 1.785-8.854 3.884-17.572 5.957-26.381h-91l-2 13a450 450 0 0 1-1.672 8.582l-.993 4.903c-.175.862-.35 1.723-.532 2.611-4.75 23.323-9.282 46.689-13.804 70.056l-1.29 6.664a9585 9585 0 0 1-3.406 17.486q-1.36 6.968-2.684 13.942-.918 4.8-1.853 9.597-.44 2.272-.866 4.548c-1.687 8.97-3.494 17.29-8.47 25.064-3.57 4.126-7.187 7.174-12.108 9.544-7.393 2.233-15.301 1.503-22.947 1.316q-2.678-.038-5.355-.069c-4.341-.055-8.68-.14-13.02-.244.751-8.506 2.422-16.813 4.07-25.18l.95-4.863q1.28-6.554 2.57-13.106 1.075-5.478 2.146-10.957a16921 16921 0 0 1 16.93-85.249l1.802-8.969 1.2-5.956c2.19-10.893 4.253-21.803 6.332-32.72h-61c1.183-11.831 2.558-23.8 9.305-33.887 4.827-6.017 10.527-10.295 17.695-13.113 7.626-2.428 15.324-2.28 23.249-2.247M1612 260c-2.635 9.89-4.615 19.87-6.547 29.914l-1.013 5.22q-1.331 6.86-2.655 13.72a23923 23923 0 0 1-5.223 26.974c-1.81 9.35-3.651 18.693-5.603 28.015l-.493 2.362q-1.139 5.451-2.309 10.895c-1.54 7.3-2.714 14.449-3.157 21.9q11.711.106 23.422.155c3.628.016 7.255.037 10.882.071 25.958.774 25.958.774 50.571-6.351 11.103-6.56 18.852-15.219 25.52-26.164 10.276-18.988 13.434-40.358 12.949-61.66-.35-8.145-1.894-14.595-5.852-21.793-4.404-6.903-9.857-11.46-16.808-15.656-16.069-8.299-34.835-8.154-52.434-7.852q-3.116.03-6.23.055c-5.007.043-10.014.112-15.02.195M312 140c9.561 5.148 18.628 11.793 24.5 21.063 3.832 7.046 5.042 13.525 4.871 21.546-1.396 12.76-7.36 24.257-13.371 35.391l-1.113 2.1c-15.594 29.373-35.146 56.822-54.442 83.863-2.82 3.974-5.596 7.978-8.382 11.974-4.482 6.42-9.02 12.794-13.625 19.125-5.058 6.956-9.961 14.005-14.774 21.132a390 390 0 0 1-8.465 12.013c-4.684 6.407-9.134 12.966-13.574 19.543l-2.55 3.77a8206 8206 0 0 0-4.931 7.304q-2.531 3.75-5.074 7.488C178.023 440.352 154.321 477.143 143 517l-.532 1.846c-.577 2.657-.739 5.236-.898 7.95l-.222 3.407q-.221 3.524-.422 7.047c-.437 6.48-1.102 11.867-3.926 17.75-2.687 2.5-2.687 2.5-6 4-3.787.489-6.356.491-9.973-.59-6.192-2.671-10.916-7.146-15.027-12.41-6.677-10.38-10.247-21.274-11.309-33.574-.517-14.744 3.4-29.009 9.309-42.426l.811-1.867c8.405-19.177 19.31-36.937 31.189-54.133l1.632-2.385c8.462-12.36 17.375-24.321 26.512-36.189a745 745 0 0 0 6.582-8.77c5.513-7.429 11.257-14.635 17.122-21.789A591 591 0 0 0 196.5 334a862 862 0 0 1 12.063-15.062 685 685 0 0 0 14-17.758c2.485-3.255 5.022-6.468 7.562-9.68C269.61 245.429 269.61 245.429 293 191c.277-3.127.396-6.237.438-9.375l.031-2.272c-.084-5.145-1.065-8.788-3.469-13.353-3.223-4.061-7.39-6.351-12.125-8.312-5.812-2.201-11.21-2.852-17.402-2.891l-2.22-.021c-2.397-.018-4.794-.024-7.19-.026l-2.5-.002C193.028 154.82 138.571 168.465 88 191l-2.322 1.017c-11.647 5.124-22.604 11.336-33.566 17.781-3.599 2.048-5.77 3.169-9.987 3.577-2.99-.111-4.52-.542-7.375-1.75-3.196-3.051-4.6-5.57-6.055-9.707-1.443-6.058-1.673-12.226-.07-18.277 1.97-4.537 5.126-7.676 8.845-10.848 4.913-3.482 10.497-5.477 16.093-7.606l3.993-1.553C129.903 135.747 226.265 111.908 312 140"/><path fill="#228FC0" d="M1081.337 269.815c2.462-.002 4.922-.02 7.384-.04 20.432-.073 40.541 2.16 58.709 12.1 7.281 4.215 12.118 8.995 16.508 16.187 5.21 9.176 5.459 17.266 5.438 27.595-.188 12.256-2.24 24.033-4.497 36.05q-.64 3.53-1.27 7.061c-1.1 6.11-2.227 12.213-3.358 18.317-1.153 6.246-2.28 12.498-3.41 18.749a8088 8088 0 0 1-4.983 27.286l-.528 2.87-.488 2.635c-.21 1.13-.21 1.13-.422 2.282A112 112 0 0 1 1149 447q-6.698.185-13.397.275-2.277.038-4.554.102c-2.187.061-4.373.09-6.56.111l-3.984.08L1117 447c-2.924-2.39-2.924-2.39-5-5-.873-2.763-.85-5.067-1-8-3.372 1.888-6.585 3.691-9.687 6-6.62 3.996-14.875 6.671-22.636 7.14l-2.413.021-2.764.03-2.96.012-3.1.017q-3.25.014-6.501.02c-3.268.01-6.535.04-9.802.072-15.96.083-29.75-.734-44.035-8.425-6.254-3.804-11.356-8.12-15.004-14.54-3.742-8.001-5.808-15.977-5.477-24.831 1.314-12.19 4.434-23.255 11.379-33.516 2.797-3.565 5.774-6.82 9-10l1.707-1.738c6.712-6.32 15.04-9.886 23.9-12.052 8.09-1.815 16.092-2.966 24.393-3.21l2.574-.086c28.846-.442 28.846-.442 37.426 3.086 2.65 1.842 3.35 3.031 5 6 .348 3.036.396 5.058 0 8-.095.76-.19 1.519-.29 2.3-.673 3.93-1.5 6.37-3.685 9.796-1.37 1.6-1.37 1.6-3.025 2.904-3.11.857-6.114.792-9.324.734l-2.732.028a567 567 0 0 1-8.631-.012q-4.29.002-8.579.031-2.662.016-5.326-.006c-6.789.004-13.815.472-19.994 3.487-4.4 3.507-7.004 6.63-9.414 11.738-1.637 4.912-1.346 9.87-1 15 .693 3.556.693 3.556 3 6 6.104 3.764 12.323 4.827 19.434 5.161 3.208.038 6.416.07 9.625.08 2.04.009 4.08.04 6.12.071 11.4.093 22.422-1.257 32.548-6.828 6.237-4.072 10.31-9.01 13.96-15.484 4.535-9.095 6.02-19.232 7.793-29.148.458-2.514.961-5.01 1.493-7.508 1.544-7.466 2.336-14.778 2.465-22.407l.067-2.344c-.02-4.973-1.054-8.517-3.407-12.895-1.933-2.99-4.054-4.952-7.098-6.698-16.647-7.738-34.83-8.962-52.937-7.438-12.092 1.142-24.07 3.317-36.028 5.405l-2.319.403q-2.169.378-4.336.766c-3.21.562-6.103.864-9.38.864.605-3.914 1.807-6.92 3.652-10.414l1.604-3.055 1.682-3.156c.55-1.05 1.102-2.099 1.67-3.18 4.061-7.699 4.061-7.699 6.392-11.195a92 92 0 0 1 7.5-3.063l2.2-.8c14.8-5.25 30.089-5.324 45.637-5.322"/><path fill="#3F469E" d="M775.375 279.75c9.386 4.813 16.269 10.833 22.125 19.672 2.342 4.025 4.102 8.14 5.5 12.578l1.082 3.352c1.573 6.506 1.312 13.243 1.293 19.898l-.002 2.156c-.041 11.914-1.075 23.11-4.373 34.594l-.65 2.332C796.17 388.989 790 402.365 780 414l-1.57 2.004c-8.767 10.821-21.537 18.565-34.352 23.778-21.785 8.186-47.34 9.992-70.21 6.343-2.993-.581-5.926-1.324-8.868-2.125l-3.453-.844c-11.07-2.986-19.933-8.843-28.258-16.652-7.122-7.79-10.976-17.307-13.289-27.504-3.275-21.678-.143-44.498 7.086-65.094C633.899 316.53 644.359 301.686 659 290c16.854-11.923 35.266-17.417 55.55-19.484 20.622-1.865 42.03.083 60.825 9.234m-88.406 32.828L685 314l-2.687 1.75c-9.074 8.828-14.796 21.265-18.5 33.21-3.53 13.201-4.619 28.293-1.625 41.728 1.951 6.53 4.82 11.32 9.625 16.125 6.71 4.605 14.158 6.296 22.187 7.187 12.447.762 25.332-.03 37-4.812 7.619-3.839 14.072-9.215 19-16.188 9.418-15.88 13.863-33.204 14.313-51.625-.154-8.722-1.404-16.65-5.875-24.25-3.604-4.887-7.94-7.668-13.438-10.125-17.346-7.045-42.52-4.866-58.031 5.578"/><path fill="#4F2D95" d="M589.012 281.219c2.91 1.734 5.477 3.508 7.988 5.781v2h2c3.752 4.139 6.29 8.981 7.875 14.313 3.294 15.469.837 31.337-1.875 46.687q-.495 2.922-.984 5.844c-1.41 8.326-2.878 16.634-4.578 24.906-1.123 5.461-2.036 10.928-2.875 16.438-1.06 6.854-2.207 13.685-3.5 20.5l-.442 2.463c-1.196 6.123-3.11 11.738-7.072 16.647-2.69 2.992-5.454 5.072-9.228 6.615-5.285 1.336-10.848.885-16.259.774l-3.806-.04q-4.628-.054-9.256-.147c1.148-10.803 2.656-21.469 4.63-32.151.45-2.442.891-4.885 1.331-7.329a2054 2054 0 0 1 4.87-25.998c.84-4.338 1.667-8.678 2.493-13.019q.604-3.141 1.229-6.278c2.076-10.427 3.814-20.653 3.95-31.307.02-.814.037-1.628.056-2.467-.045-4.077-.422-6.2-2.423-9.868-2.515-3.042-4.637-4.735-8.136-6.583-14.859-4.933-32.787-3.86-48-1-4.654 1.308-8.602 3.174-12.75 5.625-6.155 6.497-9.154 13.876-11.254 22.484-2.194 10.31-3.727 20.76-5.393 31.165-.873 5.394-1.792 10.78-2.728 16.164l-.498 2.868a483 483 0 0 1-2.815 14.757c-1.055 5.099-1.948 10.208-2.789 15.347l-.331 2.028q-.833 5.107-1.641 10.218l-.617 3.82-.546 3.44C465 439 465 439 463 444h-40c.675-8.099 1.502-15.902 2.875-23.875l.488-2.95a327 327 0 0 1 3.114-15.964c1.64-7.528 2.851-15.098 4.023-22.711 1.364-8.861 2.892-17.627 4.826-26.383.847-3.918 1.527-7.85 2.174-11.805 2.647-15.367 7.102-29.625 16.5-42.312 8.682-10.274 19.498-16.387 32-21 31.414-10.336 70.056-11.27 100.012 4.219"/><path fill="#351686" d="M397.5 279.75c6.141 3.162 11.38 6.576 15.5 12.25 4.743 7.452 6.67 14.74 7.219 23.484.174 7.25-.317 14.216-1.442 21.375l-.397 2.583c-1.853 11.843-4.002 23.637-6.13 35.433l-1.33 7.405Q408.967 393.14 407 404l-.58 3.206a8556 8556 0 0 1-3.034 16.711l-.89 4.891q-.605 3.327-1.219 6.653l-.68 3.712C400 442 400 442 399 444h-40c1.125-13.501 1.125-13.501 1.92-18.083l.54-3.149c.19-1.086.382-2.172.58-3.291l.61-3.541q.648-3.732 1.3-7.462 1.022-5.838 2.03-11.676c2-11.528 4.035-23.046 6.239-34.536.165-.87.33-1.74.502-2.635.747-3.917 1.507-7.83 2.297-11.74 1.85-9.402 3.772-20.078 1.284-29.542-.858-2.174-1.72-3.625-3.302-5.345-5.3-3.881-11.89-5.5-18.338-6.285-2.533-.207-5.06-.353-7.6-.465l-2.766-.124c-10.603-.358-22.373-.058-32.378 3.85-4.704 2.51-8.282 5.744-11.387 10.07-2.715 4.803-4.13 9.863-5.3 15.22l-.506 2.299c-2.804 13.129-4.974 26.394-7.271 39.62-1.155 6.646-2.318 13.291-3.481 19.936l-.38 2.167a3520 3520 0 0 1-5.41 30.185l-.626 3.422c-.19 1.03-.382 2.06-.579 3.12l-.502 2.714C276 441 276 441 275 444q-6.27.111-12.543.165a551 551 0 0 0-4.262.061 538 538 0 0 1-6.144.067l-3.73.048C245 444 245 444 242.174 442.638 240 441 240 441 238.187 438.5c-3.16-9.313-.579-19.653 1.079-29.074l.71-4.133q.744-4.301 1.504-8.6c.645-3.652 1.27-7.307 1.889-10.963.483-2.84.979-5.676 1.477-8.512q.354-2.019.694-4.041c1.55-9.155 3.564-16.467 9.054-24.08l1.414-1.98 1.492-2.055 3.219-4.496 1.652-2.296c2.565-3.574 5.096-7.173 7.629-10.77l3.008-4.262 1.5-2.126 4.422-6.257a5769 5769 0 0 0 18.263-25.993q1.643-2.35 3.297-4.69a127 127 0 0 0 2.832-4.248c1.237-1.897 1.237-1.897 3.678-4.924 24.454-11.654 66.721-6.808 90.5 4.75"/><path fill="#256FB1" d="M816 270c3.937-.118 7.874-.188 11.813-.25l3.333-.102c7.64-.09 13.964.946 20.854 4.352 4.59 2.944 7.936 6.373 10.504 11.194 3.44 7.158 4.63 14.828 6.055 22.572q.47 2.46.944 4.92a2637 2637 0 0 1 2.444 12.946c.803 4.285 1.62 8.567 2.438 12.848q1.438 7.538 2.865 15.078c2.806 14.836 5.748 29.644 8.75 44.442h4l.895-1.655c5.757-10.626 11.568-21.215 17.543-31.72 4.449-7.826 8.796-15.698 13.062-23.625 4.693-8.716 9.495-17.36 14.392-25.962a1312 1312 0 0 0 9.378-16.788l1.097-1.998q2.678-4.875 5.341-9.759l1.956-3.567 1.733-3.175L957 277l1.13-2.346L960 273c3.089-.56 6.132-.464 9.262-.39.906.005 1.811.01 2.745.017 2.894.022 5.787.072 8.68.123q2.943.03 5.885.055c4.81.044 9.619.113 14.428.195l1 3c-4.579 12.216-12.503 23.566-19.094 34.753a2247 2247 0 0 0-9.343 16.122l-1.885 3.27-3.787 6.573Q963.198 344.86 958.5 353l-3.75 6.5-7.5 13-1.877 3.254-3.73 6.463a5883 5883 0 0 0-8.66 15.042l-3.028 5.274a3866 3866 0 0 0-3.77 6.578c-14.492 25.213-14.492 25.213-24.372 31.327-7.318 4.229-14.255 3.844-22.563 3.937l-3.79.113c-9.05.086-9.05.086-13.053-1.544-3.924-2.404-6.895-5.037-9.407-8.944-2.344-5.002-3.887-9.932-5.113-15.32l-.62-2.666c-3.755-16.295-7.266-32.648-10.823-48.987q-.953-4.38-1.908-8.758c-4.946-22.685-9.881-45.373-14.723-68.081l-.625-2.92q-.837-3.924-1.668-7.85l-.48-2.247c-1.04-4.94-1.04-4.94-1.04-7.171"/><path fill="#F11289" d="M390 57c7.1 2.98 14.523 6.465 20 12 7.04 9.409 7.04 9.409 8 15 .833 10.5-2.725 19.617-7.062 29.063-4.9 9.43-12.153 17.65-20.895 23.761-9.347 5.38-18.065 6.524-28.63 6.561-12.71-.2-23.55-4.176-34.565-10.51-5.093-3.353-9.022-6.894-12.22-12.113-2.818-5.96-3.226-11.779-3.007-18.313 1.207-10.99 7.17-20.497 13.445-29.37 5.818-7.536 12.198-13.372 20.856-17.458C360.112 50.453 376.035 51.858 390 57"/></svg>